<svg width="31" height="12" viewBox="0 0 31 12" fill="none" xmlns="http://www.w3.org/2000/svg">
<path d="M4.292 11.098C3.65733 11.098 3.09267 10.958 2.598 10.678C2.10333 10.398 1.71133 9.978 1.422 9.418C1.142 8.84867 1.002 8.13 1.002 7.262C1.002 6.38467 1.14667 5.666 1.436 5.106C1.73467 4.546 2.13133 4.13067 2.626 3.86C3.13 3.58 3.68533 3.44 4.292 3.44C5.02933 3.44 5.678 3.59867 6.238 3.916C6.80733 4.23333 7.25533 4.67667 7.582 5.246C7.918 5.81533 8.086 6.48733 8.086 7.262C8.086 8.03667 7.918 8.70867 7.582 9.278C7.25533 9.84733 6.80733 10.2953 6.238 10.622C5.678 10.9393 5.02933 11.098 4.292 11.098ZM0.148 11V0.611999H1.898V5.26L1.758 7.248L1.814 9.236V11H0.148ZM4.096 9.6C4.516 9.6 4.88933 9.50667 5.216 9.32C5.552 9.13333 5.818 8.86267 6.014 8.508C6.21 8.15333 6.308 7.738 6.308 7.262C6.308 6.77667 6.21 6.36133 6.014 6.016C5.818 5.66133 5.552 5.39067 5.216 5.204C4.88933 5.01733 4.516 4.924 4.096 4.924C3.676 4.924 3.298 5.01733 2.962 5.204C2.626 5.39067 2.36 5.66133 2.164 6.016C1.968 6.36133 1.87 6.77667 1.87 7.262C1.87 7.738 1.968 8.15333 2.164 8.508C2.36 8.86267 2.626 9.13333 2.962 9.32C3.298 9.50667 3.676 9.6 4.096 9.6ZM13.2597 11.098C12.429 11.098 11.701 10.9347 11.0757 10.608C10.4597 10.272 9.97899 9.81467 9.63366 9.236C9.29766 8.65733 9.12966 7.99933 9.12966 7.262C9.12966 6.51533 9.29299 5.85733 9.61966 5.288C9.95566 4.70933 10.413 4.25667 10.9917 3.93C11.5797 3.60333 12.247 3.44 12.9937 3.44C13.7217 3.44 14.3703 3.59867 14.9397 3.916C15.509 4.23333 15.957 4.68133 16.2837 5.26C16.6103 5.83867 16.7737 6.52 16.7737 7.304C16.7737 7.37867 16.769 7.46267 16.7597 7.556C16.7597 7.64933 16.755 7.738 16.7457 7.822H10.5157V6.66H15.8217L15.1357 7.024C15.145 6.59467 15.0563 6.21667 14.8697 5.89C14.683 5.56333 14.4263 5.30667 14.0997 5.12C13.7823 4.93333 13.4137 4.84 12.9937 4.84C12.5643 4.84 12.1863 4.93333 11.8597 5.12C11.5423 5.30667 11.2903 5.568 11.1037 5.904C10.9263 6.23067 10.8377 6.618 10.8377 7.066V7.346C10.8377 7.794 10.9403 8.19067 11.1457 8.536C11.351 8.88133 11.6403 9.14733 12.0137 9.334C12.387 9.52067 12.8163 9.614 13.3017 9.614C13.7217 9.614 14.0997 9.54867 14.4357 9.418C14.7717 9.28733 15.0703 9.082 15.3317 8.802L16.2697 9.88C15.9337 10.272 15.509 10.5753 14.9957 10.79C14.4917 10.9953 13.913 11.098 13.2597 11.098ZM21.2686 11.098C20.4473 11.098 19.8126 10.888 19.3646 10.468C18.9166 10.0387 18.6926 9.40867 18.6926 8.578V1.872H20.4426V8.536C20.4426 8.89067 20.5313 9.166 20.7086 9.362C20.8953 9.558 21.152 9.656 21.4786 9.656C21.8706 9.656 22.1973 9.55333 22.4586 9.348L22.9486 10.594C22.7433 10.762 22.4913 10.888 22.1926 10.972C21.894 11.056 21.586 11.098 21.2686 11.098ZM17.4606 4.98V3.58H22.4446V4.98H17.4606ZM28.9942 11V9.488L28.8962 9.166V6.52C28.8962 6.00667 28.7422 5.61 28.4342 5.33C28.1262 5.04067 27.6596 4.896 27.0342 4.896C26.6142 4.896 26.1989 4.96133 25.7882 5.092C25.3869 5.22267 25.0462 5.40467 24.7662 5.638L24.0802 4.364C24.4816 4.056 24.9576 3.82733 25.5082 3.678C26.0682 3.51933 26.6469 3.44 27.2442 3.44C28.3269 3.44 29.1622 3.70133 29.7502 4.224C30.3476 4.73733 30.6462 5.53533 30.6462 6.618V11H28.9942ZM26.6422 11.098C26.0822 11.098 25.5922 11.0047 25.1722 10.818C24.7522 10.622 24.4256 10.356 24.1922 10.02C23.9682 9.67467 23.8562 9.28733 23.8562 8.858C23.8562 8.438 23.9542 8.06 24.1502 7.724C24.3556 7.388 24.6869 7.122 25.1442 6.926C25.6016 6.73 26.2082 6.632 26.9642 6.632H29.1342V7.794H27.0902C26.4929 7.794 26.0916 7.892 25.8862 8.088C25.6809 8.27467 25.5782 8.508 25.5782 8.788C25.5782 9.10533 25.7042 9.35733 25.9562 9.544C26.2082 9.73067 26.5582 9.824 27.0062 9.824C27.4356 9.824 27.8182 9.726 28.1542 9.53C28.4996 9.334 28.7469 9.04467 28.8962 8.662L29.1902 9.712C29.0222 10.1507 28.7189 10.4913 28.2802 10.734C27.8509 10.9767 27.3049 11.098 26.6422 11.098Z" fill="white"/>
</svg>
