<svg width="52" height="40" viewBox="0 0 52 40" fill="none" xmlns="http://www.w3.org/2000/svg">
<path d="M43.5691 3.88078C40.355 2.38245 36.875 1.29495 33.25 0.666615C33.2182 0.665599 33.1866 0.671563 33.1573 0.684089C33.1281 0.696616 33.102 0.715399 33.0808 0.739116C32.6458 1.53662 32.1383 2.57578 31.8 3.37328C27.955 2.79328 24.0449 2.79328 20.2 3.37328C19.8616 2.55161 19.3541 1.53662 18.895 0.739116C18.8708 0.690782 18.7983 0.666615 18.7258 0.666615C15.1008 1.29495 11.645 2.38245 8.40662 3.88078C8.38246 3.88078 8.35829 3.90495 8.33413 3.92912C1.76079 13.7649 -0.0517089 23.3349 0.842458 32.8083C0.842458 32.8566 0.866624 32.9049 0.914958 32.9291C5.26496 36.1191 9.44579 38.0524 13.5783 39.3333C13.6508 39.3574 13.7233 39.3333 13.7475 39.2849C14.7141 37.9558 15.5841 36.5541 16.3333 35.0799C16.3816 34.9833 16.3333 34.8866 16.2366 34.8624C14.8591 34.3308 13.5541 33.7024 12.2733 32.9775C12.1766 32.9291 12.1766 32.7841 12.2491 32.7116C12.515 32.5183 12.7808 32.3008 13.0466 32.1074C13.095 32.0591 13.1675 32.0591 13.2158 32.0833C21.5291 35.8774 30.495 35.8774 38.7116 32.0833C38.76 32.0591 38.8325 32.0591 38.8808 32.1074C39.1466 32.3249 39.4125 32.5183 39.6783 32.7358C39.775 32.8083 39.775 32.9533 39.6541 33.0016C38.3975 33.7508 37.0683 34.3549 35.6908 34.8866C35.5941 34.9108 35.57 35.0316 35.5941 35.1041C36.3675 36.5783 37.2375 37.9799 38.18 39.3091C38.2525 39.3333 38.325 39.3574 38.3975 39.3333C42.5541 38.0524 46.735 36.1191 51.085 32.9291C51.1333 32.9049 51.1575 32.8566 51.1575 32.8083C52.2208 21.8608 49.3933 12.3633 43.6658 3.92912C43.6416 3.90495 43.6175 3.88078 43.5691 3.88078ZM17.59 27.0324C15.1008 27.0324 13.0225 24.7366 13.0225 21.9091C13.0225 19.0816 15.0525 16.7858 17.59 16.7858C20.1516 16.7858 22.1816 19.1058 22.1575 21.9091C22.1575 24.7366 20.1275 27.0324 17.59 27.0324ZM34.4341 27.0324C31.945 27.0324 29.8666 24.7366 29.8666 21.9091C29.8666 19.0816 31.8966 16.7858 34.4341 16.7858C36.9958 16.7858 39.0258 19.1058 39.0016 21.9091C39.0016 24.7366 36.9958 27.0324 34.4341 27.0324Z" fill="white"/>
</svg>
