<svg width="27" height="27" viewBox="0 0 27 27" fill="none" xmlns="http://www.w3.org/2000/svg">
<g clip-path="url(#clip0_12_165)">
<path d="M22.95 0H4.05C1.81325 0 0 1.81325 0 4.05V22.95C0 25.1868 1.81325 27 4.05 27H22.95C25.1868 27 27 25.1868 27 22.95V4.05C27 1.81325 25.1868 0 22.95 0Z" fill="white"/>
<path d="M20.3555 21.0938C22.7285 18.8789 23.7832 15.1875 23.1504 11.6543H13.7109V15.5566H19.0898C18.8789 16.8223 18.1406 17.877 17.0859 18.5625L20.3555 21.0938Z" fill="#4285F4"/>
<path d="M4.74609 17.9824C5.43981 19.349 6.4347 20.5402 7.65576 21.4664C8.87682 22.3925 10.2922 23.0293 11.7952 23.3289C13.2982 23.6285 14.8495 23.583 16.3324 23.1958C17.8152 22.8086 19.1908 22.0899 20.3555 21.0938L17.0859 18.5625C14.291 20.4082 9.65039 19.7227 8.06836 15.3984L4.74609 17.9824Z" fill="#34A853"/>
<path d="M8.06837 15.3984C7.6465 14.0801 7.6465 12.8672 8.06837 11.5488L4.74611 8.96484C3.53322 11.3906 3.16408 14.8184 4.74611 17.9824L8.06837 15.3984Z" fill="#FBBC02"/>
<path d="M8.06836 11.5488C9.22852 7.91016 14.1855 5.80078 17.5078 8.91211L20.4082 6.06445C16.2949 2.10938 8.2793 2.26758 4.74609 8.96484L8.06836 11.5488Z" fill="#EA4335"/>
</g>
<defs>
<clipPath id="clip0_12_165">
<rect width="27" height="27" fill="white"/>
</clipPath>
</defs>
</svg>
