<svg width="34" height="34" viewBox="0 0 34 34" fill="none" xmlns="http://www.w3.org/2000/svg">
<path d="M9.715 0.5H23.785C29.145 0.5 33.5 4.855 33.5 10.215V24.285C33.5 26.8616 32.4765 29.3326 30.6545 31.1545C28.8326 32.9765 26.3616 34 23.785 34H9.715C4.355 34 0 29.645 0 24.285V10.215C0 7.63842 1.02354 5.16737 2.84546 3.34546C4.66737 1.52354 7.13842 0.5 9.715 0.5ZM9.38 3.85C7.78074 3.85 6.24699 4.4853 5.11615 5.61615C3.9853 6.74699 3.35 8.28074 3.35 9.88V24.62C3.35 27.9532 6.04675 30.65 9.38 30.65H24.12C25.7193 30.65 27.253 30.0147 28.3839 28.8839C29.5147 27.753 30.15 26.2193 30.15 24.62V9.88C30.15 6.54675 27.4532 3.85 24.12 3.85H9.38ZM25.5437 6.3625C26.099 6.3625 26.6316 6.58309 27.0243 6.97575C27.4169 7.3684 27.6375 7.90095 27.6375 8.45625C27.6375 9.01155 27.4169 9.5441 27.0243 9.93675C26.6316 10.3294 26.099 10.55 25.5437 10.55C24.9885 10.55 24.4559 10.3294 24.0632 9.93675C23.6706 9.5441 23.45 9.01155 23.45 8.45625C23.45 7.90095 23.6706 7.3684 24.0632 6.97575C24.4559 6.58309 24.9885 6.3625 25.5437 6.3625ZM16.75 8.875C18.9712 8.875 21.1014 9.75736 22.672 11.328C24.2426 12.8986 25.125 15.0288 25.125 17.25C25.125 19.4712 24.2426 21.6014 22.672 23.172C21.1014 24.7426 18.9712 25.625 16.75 25.625C14.5288 25.625 12.3986 24.7426 10.828 23.172C9.25736 21.6014 8.375 19.4712 8.375 17.25C8.375 15.0288 9.25736 12.8986 10.828 11.328C12.3986 9.75736 14.5288 8.875 16.75 8.875ZM16.75 12.225C15.4173 12.225 14.1392 12.7544 13.1968 13.6968C12.2544 14.6392 11.725 15.9173 11.725 17.25C11.725 18.5827 12.2544 19.8608 13.1968 20.8032C14.1392 21.7456 15.4173 22.275 16.75 22.275C18.0827 22.275 19.3608 21.7456 20.3032 20.8032C21.2456 19.8608 21.775 18.5827 21.775 17.25C21.775 15.9173 21.2456 14.6392 20.3032 13.6968C19.3608 12.7544 18.0827 12.225 16.75 12.225Z" fill="white"/>
</svg>
