<svg width="26" height="26" viewBox="0 0 26 26" fill="none" xmlns="http://www.w3.org/2000/svg">
<g id="language-svgrepo-com (1) 1">
<path id="Vector" d="M2.1665 13C2.1665 18.983 7.01675 23.8333 12.9998 23.8333C18.9829 23.8333 23.8332 18.983 23.8332 13C23.8332 7.0169 18.9829 2.16666 12.9998 2.16666C7.01675 2.16666 2.1665 7.0169 2.1665 13Z" stroke="black" stroke-width="2" stroke-linecap="round" stroke-linejoin="round"/>
<path id="Vector_2" d="M14.0835 2.22009C14.0835 2.22009 17.3335 6.49993 17.3335 12.9999C17.3335 19.4999 14.0835 23.7798 14.0835 23.7798" stroke="black" stroke-width="2" stroke-linecap="round" stroke-linejoin="round"/>
<path id="Vector_3" d="M11.9165 23.7798C11.9165 23.7798 8.6665 19.4999 8.6665 12.9999C8.6665 6.49993 11.9165 2.22009 11.9165 2.22009" stroke="black" stroke-width="2" stroke-linecap="round" stroke-linejoin="round"/>
<path id="Vector_4" d="M2.84863 16.7917H23.1511" stroke="black" stroke-width="2" stroke-linecap="round" stroke-linejoin="round"/>
<path id="Vector_5" d="M2.84863 9.20834H23.1511" stroke="black" stroke-width="2" stroke-linecap="round" stroke-linejoin="round"/>
</g>
</svg>
