<svg width="31" height="31" viewBox="0 0 31 31" fill="none" xmlns="http://www.w3.org/2000/svg">
<path d="M26.8 0.5C27.6885 0.5 28.5406 0.852945 29.1688 1.48119C29.7971 2.10944 30.15 2.96152 30.15 3.85V27.3C30.15 28.1885 29.7971 29.0406 29.1688 29.6688C28.5406 30.2971 27.6885 30.65 26.8 30.65H3.35C2.46152 30.65 1.60944 30.2971 0.981192 29.6688C0.352945 29.0406 0 28.1885 0 27.3V3.85C0 2.96152 0.352945 2.10944 0.981192 1.48119C1.60944 0.852945 2.46152 0.5 3.35 0.5H26.8ZM25.9625 26.4625V17.585C25.9625 16.1368 25.3872 14.7479 24.3632 13.7238C23.3391 12.6998 21.9502 12.1245 20.502 12.1245C19.0783 12.1245 17.42 12.9955 16.616 14.302V12.4428H11.9428V26.4625H16.616V18.2048C16.616 16.915 17.6545 15.8598 18.9443 15.8598C19.5662 15.8598 20.1626 16.1068 20.6024 16.5466C21.0422 16.9864 21.2893 17.5828 21.2893 18.2048V26.4625H25.9625ZM6.499 9.813C7.24532 9.813 7.96107 9.51653 8.4888 8.9888C9.01653 8.46107 9.313 7.74532 9.313 6.999C9.313 5.44125 8.05675 4.16825 6.499 4.16825C5.74824 4.16825 5.02823 4.46649 4.49736 4.99736C3.96649 5.52823 3.66825 6.24824 3.66825 6.999C3.66825 8.55675 4.94125 9.813 6.499 9.813ZM8.82725 26.4625V12.4428H4.1875V26.4625H8.82725Z" fill="white"/>
</svg>
