<svg width="31" height="30" viewBox="0 0 31 30" fill="none" xmlns="http://www.w3.org/2000/svg">
<path fill-rule="evenodd" clip-rule="evenodd" d="M15.314 0C7.09851 0 0.5 6.65197 0.5 14.9377C0.5 21.0878 4.11051 26.2341 9.33951 28.6194C9.33951 25.8181 9.31999 26.1792 11.4545 17.0706C10.2815 14.7034 11.1935 10.7952 13.82 10.7952C17.465 10.7952 14.9885 16.1993 14.567 18.3259C14.1935 19.958 15.4385 21.2139 16.9325 21.2139C19.796 21.2139 21.662 17.5728 21.662 13.3059C21.662 10.0418 19.4225 7.65674 15.563 7.65674C8.70051 7.65674 6.96051 15.2993 9.33951 17.6982C9.93801 18.6043 9.33951 18.6467 9.33951 19.8325C8.92401 21.0864 5.6045 19.2638 5.6045 14.5613C5.6045 10.2928 9.0905 5.27271 16.1855 5.27271C21.7865 5.27271 25.5215 9.41438 25.5215 13.8083C25.5215 19.7073 22.2845 23.9758 17.555 23.9758C15.9365 23.9758 14.4425 23.0964 13.9445 22.092C13.04 25.6102 12.857 27.3939 11.4545 29.3723C12.824 29.7489 14.1935 30 15.6875 30C23.903 30 30.5 23.348 30.5 15.0637C30.128 6.65241 23.5295 0 15.314 0Z" fill="white"/>
</svg>
