<svg width="34" height="24" viewBox="0 0 34 24" fill="none" xmlns="http://www.w3.org/2000/svg">
<path d="M13.4 17.25L22.0932 12.225L13.4 7.2V17.25ZM32.763 4.13475C32.9807 4.922 33.1315 5.97725 33.232 7.31725C33.3493 8.65725 33.3995 9.813 33.3995 10.818L33.5 12.225C33.5 15.8933 33.232 18.59 32.763 20.3153C32.3442 21.8228 31.3727 22.7943 29.8652 23.213C29.078 23.4307 27.6375 23.5815 25.4265 23.682C23.249 23.7993 21.2557 23.8495 19.4132 23.8495L16.75 23.95C9.73175 23.95 5.36 23.682 3.63475 23.213C2.12725 22.7943 1.15575 21.8228 0.737 20.3153C0.51925 19.528 0.3685 18.4728 0.268 17.1328C0.15075 15.7928 0.1005 14.637 0.1005 13.632L0 12.225C0 8.55675 0.268 5.86 0.737 4.13475C1.15575 2.62725 2.12725 1.65575 3.63475 1.237C4.422 1.01925 5.8625 0.8685 8.0735 0.768C10.251 0.65075 12.2442 0.6005 14.0867 0.6005L16.75 0.5C23.7682 0.5 28.14 0.768 29.8652 1.237C31.3727 1.65575 32.3442 2.62725 32.763 4.13475Z" fill="white"/>
</svg>
