<svg width="10" height="10" viewBox="0 0 10 10" fill="none" xmlns="http://www.w3.org/2000/svg">
<path d="M9.5104 8.50608L9.5104 1.43502C9.50753 1.30339 9.47869 1.17363 9.42555 1.05318C9.32412 0.810302 9.13102 0.617206 8.88815 0.515777C8.76769 0.462633 8.63793 0.433797 8.50631 0.430924L1.43524 0.430924C1.30338 0.430924 1.17281 0.456896 1.05099 0.507356C0.92917 0.557816 0.818479 0.631777 0.725241 0.725016C0.536937 0.913319 0.431149 1.16871 0.431149 1.43502C0.431149 1.70132 0.536937 1.95671 0.725241 2.14502C0.913545 2.33332 1.16894 2.43911 1.43524 2.43911L6.09507 2.43204L0.728134 7.79898C0.540598 7.98651 0.435241 8.24087 0.435241 8.50608C0.435241 8.7713 0.540598 9.02565 0.728134 9.21319C0.915671 9.40073 1.17002 9.50608 1.43524 9.50608C1.70046 9.50608 1.95481 9.40073 2.14235 9.21319L7.50929 3.84625L7.50222 8.50608C7.50168 8.63809 7.52728 8.7689 7.57755 8.89097C7.62781 9.01304 7.70176 9.12394 7.7951 9.21729C7.88845 9.31064 7.99935 9.38458 8.12142 9.43485C8.24349 9.48511 8.3743 9.51072 8.50631 9.51017C8.63832 9.51071 8.76913 9.48511 8.8912 9.43485C9.01326 9.38458 9.12417 9.31064 9.21751 9.21729C9.31086 9.12394 9.3848 9.01304 9.43507 8.89097C9.48534 8.76891 9.51094 8.63809 9.5104 8.50608Z" fill="white"/>
</svg>
