<svg width="21" height="20" viewBox="0 0 21 20" fill="none" xmlns="http://www.w3.org/2000/svg">
<path d="M9.61555 0.67634C9.99076 -0.0348062 11.0092 -0.0348072 11.3844 0.676339L13.7855 5.22719C13.9302 5.50144 14.1939 5.69304 14.4995 5.74591L19.5695 6.62316C20.3618 6.76025 20.6766 7.72888 20.1162 8.30548L16.53 11.9953C16.3139 12.2177 16.2132 12.5277 16.2573 12.8346L16.9897 17.9276C17.1042 18.7235 16.2802 19.3222 15.5587 18.9674L10.9412 16.697C10.663 16.5601 10.337 16.5601 10.0588 16.697L5.44133 18.9674C4.71978 19.3222 3.89581 18.7235 4.01026 17.9276L4.74269 12.8346C4.78683 12.5277 4.68609 12.2177 4.46998 11.9953L0.883835 8.30548C0.32344 7.72888 0.638167 6.76025 1.43045 6.62316L6.50054 5.74591C6.80607 5.69304 7.0698 5.50144 7.21449 5.22719L9.61555 0.67634Z" fill="white"/>
</svg>
