<svg width="14" height="12" viewBox="0 0 14 12" fill="none" xmlns="http://www.w3.org/2000/svg">
<path d="M14 3.83271C14 8.15996 7.51312 11.6626 7.23687 11.8072C7.16406 11.846 7.08268 11.8662 7 11.8662C6.91732 11.8662 6.83594 11.846 6.76312 11.8072C6.48688 11.6626 0 8.15996 0 3.83271C0.00115796 2.81656 0.409788 1.84236 1.13624 1.12384C1.86269 0.405315 2.84764 0.00114532 3.875 0C5.16563 0 6.29562 0.548943 7 1.47683C7.70438 0.548943 8.83438 0 10.125 0C11.1524 0.00114532 12.1373 0.405315 12.8638 1.12384C13.5902 1.84236 13.9988 2.81656 14 3.83271Z" fill="white"/>
</svg>
