<svg width="25" height="25" viewBox="0 0 25 25" fill="none" xmlns="http://www.w3.org/2000/svg">
<path d="M24.0222 24.0208C23.4259 24.5383 22.6171 24.8291 21.7737 24.8291C20.9304 24.8291 20.1215 24.5383 19.5252 24.0208L12.5 17.0518L5.47488 24.0184C5.18047 24.2782 4.82974 24.4847 4.4429 24.6262C4.05606 24.7677 3.64077 24.8413 3.22099 24.8428C2.80121 24.8443 2.38525 24.7736 1.99709 24.6348C1.60894 24.4961 1.25627 24.292 0.959441 24.0344C0.66261 23.7768 0.427486 23.4707 0.267632 23.1338C0.107778 22.7969 0.0263575 22.4359 0.0280668 22.0716C0.0297761 21.7072 0.114581 21.3468 0.277591 21.011C0.440601 20.6753 0.678589 20.3709 0.977828 20.1154L8.28653 12.8704L0.975178 5.62075C0.675939 5.36523 0.437951 5.06082 0.274941 4.72507C0.111932 4.38932 0.0271263 4.02889 0.025417 3.66455C0.0237077 3.30021 0.105129 2.93919 0.264983 2.6023C0.424837 2.26541 0.65996 1.95932 0.956791 1.7017C1.25362 1.44407 1.60629 1.24 1.99444 1.10126C2.3826 0.962517 2.79856 0.89185 3.21834 0.893333C3.63812 0.894817 4.05341 0.968422 4.44025 1.1099C4.82709 1.25138 5.17782 1.45794 5.47223 1.71765L12.5 8.68895L19.5252 1.71765C19.8196 1.45794 20.1703 1.25138 20.5572 1.1099C20.944 0.968422 21.3593 0.894817 21.7791 0.893333C22.1988 0.89185 22.6148 0.962517 23.003 1.10126C23.3911 1.24 23.7438 1.44407 24.0406 1.7017C24.3374 1.95932 24.5726 2.26541 24.7324 2.6023C24.8923 2.93919 24.9737 3.30021 24.972 3.66455C24.9703 4.02889 24.8855 4.38932 24.7225 4.72507C24.5595 5.06082 24.3215 5.36523 24.0222 5.62075L16.7135 12.8704L24.0222 20.1154C24.3179 20.3717 24.5524 20.6761 24.7125 21.0111C24.8725 21.3462 24.9549 21.7053 24.9549 22.0681C24.9549 22.4308 24.8725 22.7899 24.7125 23.125C24.5524 23.46 24.3179 23.7644 24.0222 24.0208Z" fill="#F24E1E"/>
</svg>
